<svg width="7" height="14" viewBox="0 0 7 14" fill="none" xmlns="http://www.w3.org/2000/svg">
<path fill-rule="evenodd" clip-rule="evenodd" d="M3.11215 4.42651C2.65094 2.21118 1.26315 0.545288 0.421051 0.195801V4.53882C1.26315 4.52844 2.37137 4.48547 3.11215 4.42651ZM6.02557 3.96301C5.87201 4.01013 5.24997 4.18372 4.01965 4.32935C3.74207 2.85291 3.241 1.59473 2.58752 0.686401C4.08563 1.33569 5.30386 2.50452 6.02557 3.96301ZM0.421051 5.51733C1.26315 5.50635 2.44351 5.45996 3.22723 5.3949C3.29178 5.91309 3.30807 6.44946 3.30807 7.0011C3.30807 7.70959 3.28281 8.39673 3.17838 9.04602C2.40674 8.98364 1.26315 8.93872 0.421051 8.92871V5.51733ZM0.421051 9.90723V13.8068C1.26315 13.4808 2.51004 12.0077 3.00967 10.0125C2.28827 9.95691 1.26315 9.91736 0.421051 9.90723ZM2.58752 13.3163C3.17642 12.4978 3.64548 11.3992 3.93491 10.1088C4.90274 10.2202 5.51245 10.3499 5.81979 10.4274C5.07968 11.7118 3.94659 12.7245 2.58752 13.3163ZM4.16788 5.29675C4.31555 6.57568 4.29575 7.86853 4.10892 9.14233C5.30386 9.28235 5.98343 9.45142 6.25375 9.53027C6.56534 8.74658 6.74219 7.89465 6.74219 7.0011C6.74179 6.11792 6.57019 5.24329 6.23691 4.42542L6.39496 4.8717C6.35062 4.88745 5.68085 5.11511 4.16788 5.29675Z" fill="white"/>
</svg>
